<?xml version="1.0" standalone="no"?>
<!DOCTYPE svg PUBLIC "-//W3C//DTD SVG 20010904//EN"
 "http://www.w3.org/TR/2001/REC-SVG-20010904/DTD/svg10.dtd">
<svg version="1.0" xmlns="http://www.w3.org/2000/svg"
 width="1344.000000pt" height="896.000000pt" viewBox="0 0 1344.000000 896.000000"
 preserveAspectRatio="xMidYMid meet">
<metadata>
Created by potrace 1.16, written by Peter Selinger 2001-2019
</metadata>
<g transform="translate(0.000000,896.000000) scale(0.100000,-0.100000)"
fill="#000000" stroke="none">
<path d="M0 7018 c0 -1848 1 -1940 18 -1926 9 9 28 19 41 23 14 4 39 16 55 26
44 27 115 59 131 59 7 0 18 6 24 14 7 8 34 20 62 27 27 7 49 16 49 20 0 10 59
39 78 39 22 0 82 23 82 31 0 4 15 12 33 19 28 10 105 43 202 86 17 7 46 16 65
19 19 4 42 13 50 20 8 7 31 16 50 20 19 4 49 13 65 20 43 18 80 31 165 55 41
12 102 31 134 41 33 10 70 19 84 19 13 0 35 9 49 20 14 11 33 20 43 20 9 0 43
9 75 20 32 11 67 20 77 20 11 0 44 11 74 25 30 14 60 25 67 25 7 0 51 14 99
30 49 17 112 35 140 41 29 6 64 14 78 20 42 15 240 49 345 59 141 13 315 41
345 55 14 7 41 16 60 20 19 4 46 15 60 25 24 16 49 25 115 37 17 3 45 17 63
30 18 14 39 26 45 27 31 7 50 22 77 61 16 23 26 45 23 49 -4 3 1 6 10 6 9 0
17 4 17 8 0 22 48 60 83 66 46 9 87 26 87 38 0 4 9 8 20 8 11 0 20 3 20 8 0
19 85 31 201 29 111 -2 130 -5 180 -29 43 -20 58 -33 61 -52 3 -14 1 -26 -4
-26 -5 0 -7 -4 -4 -9 4 -5 2 -11 -3 -13 -12 -4 -31 -116 -24 -135 3 -7 9 -11
13 -8 5 3 25 -11 44 -30 33 -33 36 -40 36 -95 0 -52 -2 -60 -19 -60 -12 0 -21
-9 -25 -25 -4 -16 -13 -25 -26 -25 -11 0 -20 -7 -20 -15 0 -8 -14 -17 -34 -21
-21 -3 -33 -11 -30 -18 3 -7 -11 -20 -31 -29 -20 -9 -38 -24 -41 -32 -4 -8
-17 -15 -29 -15 -13 0 -32 -11 -43 -25 -11 -14 -52 -41 -91 -61 -39 -19 -71
-39 -71 -44 0 -4 -14 -13 -30 -19 -17 -5 -30 -14 -30 -19 0 -6 -15 -13 -34
-16 -19 -4 -39 -13 -45 -20 -7 -8 -112 -64 -234 -124 -213 -105 -363 -164
-458 -178 -51 -7 -220 -61 -233 -75 -6 -5 -18 -9 -28 -9 -24 0 -90 -34 -107
-54 -7 -8 -27 -18 -44 -22 -18 -4 -71 -24 -120 -45 -48 -21 -151 -56 -230 -79
-78 -23 -167 -50 -197 -60 -50 -16 -158 -48 -300 -87 -30 -8 -66 -19 -80 -23
-14 -5 -70 -16 -125 -25 -55 -9 -129 -22 -165 -30 -36 -8 -131 -24 -212 -35
-81 -11 -156 -24 -165 -29 -59 -30 -93 -39 -308 -81 -55 -11 -113 -24 -130
-30 -16 -5 -74 -19 -128 -32 l-97 -23 0 -1242 c0 -1121 2 -1243 16 -1243 8 0
25 5 37 12 12 6 30 12 39 13 9 1 39 25 66 53 27 29 57 52 65 52 8 0 24 12 35
27 16 22 29 27 78 31 32 2 64 9 70 14 11 8 22 12 84 25 14 3 29 12 33 19 4 8
15 14 22 14 8 0 15 5 15 10 0 6 -8 10 -17 10 -10 0 -39 18 -65 41 -46 39 -48
42 -42 82 6 35 19 54 75 110 60 59 73 67 106 67 34 0 70 7 143 28 31 9 83 39
120 69 15 13 33 23 39 23 7 0 29 9 50 20 21 10 41 16 45 13 3 -4 6 3 6 15 0
12 6 22 13 22 8 0 7 4 -3 10 -13 9 -13 11 -1 19 15 10 41 4 41 -9 0 -4 46 -8
102 -9 56 -1 105 -4 110 -7 5 -3 34 -2 65 2 100 12 146 77 173 244 5 30 24 84
43 119 37 72 17 61 197 103 30 7 57 15 60 18 3 4 21 15 40 26 19 10 39 24 45
30 16 18 138 104 148 104 4 0 29 9 55 21 26 11 56 24 67 29 78 32 114 51 120
60 13 22 85 8 85 -17 0 -8 13 -19 29 -24 32 -11 34 -16 51 -134 15 -100 33
-144 79 -194 37 -40 88 -61 147 -61 17 0 56 -5 88 -11 l58 -10 52 58 c28 32
67 75 87 96 l36 38 -15 45 c-20 60 -101 128 -180 150 -186 52 -197 56 -230 91
-18 20 -31 40 -29 47 2 6 1 18 -4 27 -17 33 19 58 302 211 135 74 340 106 469
74 36 -9 72 -18 80 -21 167 -49 167 -49 289 -38 71 6 129 17 149 27 29 15 71
24 125 25 9 1 17 8 17 17 0 17 33 16 89 -2 21 -6 23 -4 18 12 -92 282 -152
571 -177 844 -5 63 -15 156 -21 205 -11 82 -10 98 10 174 12 46 30 100 40 120
25 47 81 117 92 114 5 -2 9 4 9 13 0 8 4 13 9 10 4 -3 26 9 47 27 21 18 69 52
106 74 55 34 69 39 76 27 6 -12 17 -9 57 18 76 48 384 188 460 208 17 5 53 17
80 27 28 11 65 23 84 26 31 6 32 6 20 -11 -13 -16 -12 -16 6 -1 48 39 129 65
232 74 17 2 37 6 44 11 19 11 73 11 81 -1 5 -6 8 -2 8 9 0 20 0 20 15 0 13
-18 14 -18 8 5 -5 18 -3 22 7 16 19 -12 60 -15 60 -4 0 5 8 9 18 9 14 0 15 -2
2 -10 -11 -7 -5 -8 20 -4 19 4 37 8 39 10 2 2 11 -1 20 -6 17 -9 145 -13 191
-6 39 5 84 18 95 26 6 4 51 11 100 15 50 4 124 11 165 16 41 5 197 12 345 15
284 7 465 -4 494 -30 9 -7 31 -21 49 -30 l34 -17 40 41 c23 23 63 53 90 67 48
25 52 26 196 20 150 -6 196 -14 267 -47 41 -18 195 -32 510 -45 220 -9 365
-29 570 -77 293 -69 456 -127 720 -260 71 -35 185 -129 226 -186 49 -69 62
-118 57 -208 -6 -85 -30 -126 -135 -225 -102 -96 -291 -206 -338 -197 -13 3
-22 2 -20 -3 3 -4 -12 -13 -32 -20 -21 -6 -47 -18 -58 -25 -69 -44 -452 -146
-745 -199 -102 -19 -253 -47 -335 -64 -159 -32 -419 -62 -725 -82 -203 -14
-1094 -19 -1280 -7 -156 10 -514 46 -573 58 -26 6 -51 9 -55 8 -9 -2 -115 10
-207 23 -96 14 -260 48 -615 128 -47 11 -134 33 -195 51 -204 58 -245 68 -245
59 0 -5 -7 -9 -15 -9 -17 0 -21 -45 -5 -55 7 -4 8 -26 4 -57 -7 -51 12 -184
28 -194 4 -3 8 -20 8 -37 0 -18 7 -54 15 -80 8 -26 14 -63 13 -82 -1 -19 3
-40 9 -47 5 -7 10 -24 12 -38 3 -39 7 -53 18 -80 11 -27 25 -86 23 -96 -1 -4
2 -10 7 -13 5 -3 22 -42 39 -86 30 -79 31 -81 110 -134 43 -29 78 -56 77 -60
-1 -3 18 -16 42 -29 30 -15 45 -29 45 -41 0 -27 10 -51 22 -51 15 0 38 -27 38
-44 0 -9 8 -16 20 -16 11 0 20 -4 20 -10 0 -6 63 -10 170 -10 107 0 170 -4
170 -10 0 -5 6 -10 14 -10 8 0 17 -6 19 -12 4 -10 6 -10 6 -1 1 7 7 10 15 7 8
-3 17 -1 21 5 4 8 13 8 28 -1 12 -6 33 -12 47 -14 43 -4 84 -15 127 -36 44
-20 66 -22 232 -19 57 1 162 -6 233 -14 72 -8 150 -15 174 -15 25 0 71 -9 103
-20 32 -10 80 -21 107 -24 79 -8 152 -26 165 -42 9 -11 8 -14 -4 -14 -21 0
-30 -16 -22 -40 5 -16 12 -19 33 -14 15 4 33 11 39 16 7 6 30 7 50 4 21 -4 64
-9 96 -11 32 -2 65 -9 73 -16 13 -10 17 -10 24 1 18 28 110 17 110 -14 0 -19
58 -86 74 -86 19 0 46 -34 46 -57 0 -12 12 -30 27 -41 31 -22 25 -38 -20 -50
-34 -9 -43 -27 -33 -67 5 -21 9 -22 53 -14 25 5 57 16 69 24 32 21 34 20 34
-20 0 -32 2 -35 30 -35 17 0 30 5 30 12 0 6 8 1 19 -10 10 -12 21 -19 24 -16
3 3 16 -14 28 -38 12 -23 25 -45 29 -48 4 -3 13 -26 21 -52 7 -27 17 -48 21
-48 4 0 8 -49 8 -110 0 -67 -4 -110 -10 -110 -5 0 -10 -13 -10 -30 0 -16 -4
-30 -10 -30 -5 0 -10 -7 -10 -14 0 -8 -11 -27 -25 -42 -14 -15 -25 -31 -25
-36 0 -5 -11 -19 -25 -32 -14 -13 -25 -28 -25 -34 0 -6 -8 -13 -19 -17 -10 -3
-31 -17 -47 -30 -16 -14 -35 -25 -41 -25 -7 0 -13 -4 -13 -9 0 -8 -120 -71
-135 -71 -5 0 -16 -6 -24 -14 -9 -7 -43 -22 -76 -32 -33 -10 -71 -24 -85 -31
-14 -7 -37 -13 -52 -13 -15 0 -29 -4 -32 -9 -21 -34 -556 -46 -746 -16 l-35 5
49 -45 c27 -26 66 -55 87 -65 29 -16 36 -24 32 -40 -4 -13 2 -28 13 -39 23
-22 45 -50 82 -99 48 -66 193 -222 206 -222 4 0 19 -12 34 -26 40 -39 114 -67
202 -78 14 -2 28 -4 33 -5 20 -3 3 -31 -28 -45 -19 -10 -43 -29 -52 -43 -17
-25 -18 -25 -112 -19 -331 23 -783 76 -1096 127 -470 77 -682 127 -1085 254
-63 20 -126 38 -140 40 -14 2 -56 16 -95 30 -38 15 -92 34 -120 44 -51 19 -89
35 -233 102 -46 22 -85 39 -87 39 -6 0 -220 122 -225 128 -3 4 -36 24 -75 44
-45 24 -69 43 -69 53 1 9 -1 14 -4 11 -3 -3 -11 -1 -19 6 -7 6 -16 8 -20 4 -3
-3 -1 -6 5 -6 7 0 12 -5 12 -12 0 -6 -8 -4 -20 7 -10 9 -18 22 -17 29 1 6 -8
10 -20 10 -16 -1 -39 18 -80 67 -59 71 -75 86 -48 46 8 -13 12 -26 9 -30 -3
-3 13 -34 37 -69 36 -53 38 -59 14 -38 l-28 25 23 -32 c13 -18 28 -29 33 -26
6 3 7 1 3 -6 -11 -17 149 -173 270 -263 184 -136 436 -281 634 -363 36 -14 95
-40 133 -57 75 -34 73 -31 69 -157 -1 -30 2 -59 7 -65 9 -11 23 -59 26 -88 1
-11 -4 -14 -14 -10 -9 3 -13 2 -9 -3 4 -4 3 -16 -3 -27 -8 -14 -7 -24 3 -36
11 -15 11 -15 -3 -4 -9 7 -24 10 -33 6 -9 -3 -16 -1 -16 6 0 6 4 9 9 5 5 -3
12 -1 16 5 3 5 1 10 -5 10 -7 0 -9 8 -5 20 5 15 3 18 -9 14 -12 -5 -15 -2 -10
10 4 11 -4 26 -22 43 -18 15 -22 23 -11 20 21 -8 23 9 2 17 -30 11 -30 -26 0
-52 25 -21 26 -24 7 -18 -16 5 -22 3 -22 -8 0 -10 6 -13 18 -10 16 5 16 5 -1
-6 -9 -6 -22 -8 -28 -4 -7 4 -10 1 -7 -6 2 -8 14 -14 26 -15 32 -2 38 -12 8
-12 -35 0 -53 22 -35 44 13 15 12 15 -8 5 -16 -9 -24 -9 -29 -1 -4 8 -9 7 -15
-2 -6 -10 -9 -10 -9 -2 0 6 5 15 10 18 23 14 8 23 -17 10 -27 -14 -39 -40 -22
-51 6 -3 7 -14 4 -23 -3 -11 0 -18 9 -18 9 0 13 4 10 8 -2 4 0 10 6 14 5 3 10
-3 10 -14 0 -11 -4 -23 -10 -26 -5 -3 -10 -2 -10 4 0 6 -7 8 -15 5 -8 -4 -12
-10 -9 -15 2 -5 0 -18 -6 -30 -9 -17 -8 -23 7 -36 10 -8 12 -12 5 -8 -7 4 -18
2 -25 -4 -10 -7 -13 -5 -14 9 -1 11 3 22 8 26 6 4 6 11 -2 20 -10 12 -9 13 5
8 9 -3 16 -1 16 5 0 6 -6 11 -12 11 -10 0 -10 2 -1 8 19 12 21 62 2 62 -5 0
-8 -4 -5 -9 11 -17 -5 -40 -22 -33 -13 4 -15 3 -7 -9 6 -8 2 -7 -7 3 -14 16
-17 16 -21 3 -4 -11 -4 -10 -3 2 1 14 8 17 30 15 23 -3 28 -1 23 12 -4 10 -1
19 8 23 13 5 13 7 -2 20 -16 13 -16 14 -1 9 20 -6 28 19 16 52 -9 25 -3 42 13
42 6 0 7 -5 4 -10 -3 -6 0 -10 7 -10 9 0 9 -3 -2 -10 -13 -8 -13 -11 -1 -19 8
-5 10 -14 5 -22 -6 -11 -4 -11 10 0 13 11 14 16 4 22 -10 7 -6 15 15 34 15 14
27 29 27 32 0 4 -11 -4 -25 -17 -25 -24 -35 -16 -12 10 10 12 9 12 -5 2 -12
-10 -17 -10 -20 -1 -3 8 -9 7 -20 -5 -15 -15 -17 -15 -20 2 -3 15 -6 14 -16
-5 -11 -19 -10 -22 3 -17 8 4 15 1 15 -5 0 -6 -5 -11 -11 -11 -7 0 -9 -10 -5
-26 5 -17 3 -24 -4 -19 -12 7 -10 -26 1 -35 4 -3 3 -13 0 -23 -6 -16 -8 -16
-26 -1 -19 15 -19 15 -1 10 16 -6 17 -4 6 9 -9 11 -9 15 -1 15 8 0 9 5 1 19
-13 26 -13 34 2 25 8 -5 9 -2 5 10 -4 10 -7 25 -7 34 0 14 -2 14 -9 3 -5 -8
-7 -21 -3 -29 3 -10 1 -13 -6 -8 -7 4 -20 9 -29 11 -55 13 -66 15 -53 9 8 -4
18 -12 22 -19 4 -6 17 -11 30 -10 24 2 38 -10 38 -33 0 -9 -7 -8 -28 4 -26 15
-26 15 -4 -1 26 -21 29 -37 5 -28 -17 7 -17 6 0 -11 20 -20 23 -34 4 -18 -17
14 -57 4 -51 -12 3 -7 -2 -19 -11 -26 -13 -11 -18 -11 -28 0 -8 9 -8 11 0 6
14 -8 11 20 -4 35 -20 20 -30 0 -28 -53 2 -62 21 -109 41 -101 8 3 14 1 14 -5
0 -20 -29 -21 -35 -1 -4 10 -11 19 -16 19 -6 0 -7 -5 -4 -10 4 -6 3 -9 -2 -8
-8 3 -13 -5 -13 -23 0 -5 4 -7 10 -4 5 3 18 1 27 -4 16 -9 15 -10 -7 -8 -18 1
-25 -3 -25 -17 0 -11 -6 -20 -13 -22 -7 -1 -8 0 -2 3 8 3 7 9 -1 19 -6 8 -16
11 -22 7 -6 -3 -7 -1 -3 5 4 6 14 8 24 5 15 -6 15 -5 3 10 -10 13 -17 15 -27
6 -11 -9 -14 -8 -15 2 0 8 -4 5 -9 -6 -6 -14 -7 -7 -5 24 4 48 8 54 33 57 13
2 13 -1 -4 -12 -25 -17 -22 -59 3 -50 8 3 16 6 18 6 2 0 1 9 -2 20 -3 11 0 20
6 20 6 0 8 -7 4 -17 -6 -15 -5 -16 9 -3 14 13 14 16 -1 27 -11 9 -12 12 -3 13
7 0 11 4 7 9 -3 6 -13 8 -23 6 -15 -3 -18 2 -14 28 3 22 1 29 -6 22 -6 -5 -12
-21 -14 -34 -3 -24 -28 -43 -28 -21 0 6 6 8 13 4 9 -6 9 -4 0 7 -10 10 -16 10
-25 1 -8 -8 -17 -8 -30 -1 -24 13 -47 0 -24 -13 9 -5 21 -6 26 -3 16 10 11 -7
-6 -19 -12 -9 -13 -17 -5 -39 8 -20 8 -26 0 -22 -5 4 -27 -1 -47 -11 -46 -23
-72 -25 -72 -7 0 10 -6 12 -20 8 -15 -5 -18 -3 -14 9 7 17 22 17 42 -1 16 -15
29 -16 37 -3 3 5 11 7 18 4 19 -7 52 32 36 42 -8 4 -10 3 -5 -4 4 -7 2 -12 -3
-12 -6 0 -11 6 -11 13 -1 8 -5 7 -13 -3 -7 -9 -20 -14 -29 -12 -10 2 -18 -2
-18 -8 0 -9 -3 -10 -13 -1 -8 6 -17 8 -20 4 -4 -3 -7 -2 -7 4 0 8 -8 8 -25 0
-17 -8 -23 -18 -19 -29 4 -13 1 -16 -10 -12 -9 3 -13 11 -9 18 4 6 -1 5 -10
-3 -21 -17 -22 -3 -1 20 15 16 14 17 -6 12 -13 -4 -26 0 -32 8 -8 11 -9 10 -4
-3 3 -10 0 -18 -7 -19 -7 -1 -24 -2 -39 -3 -14 0 -30 -5 -34 -9 -5 -4 0 -5 10
-1 13 5 17 4 12 -4 -5 -8 -1 -10 10 -5 13 5 15 3 9 -8 -5 -7 4 -4 19 9 37 29
48 28 36 -2 -6 -17 -5 -26 3 -30 9 -3 9 -5 0 -5 -7 -1 -10 -7 -7 -15 3 -7 -2
-16 -10 -19 -9 -4 -16 -17 -16 -30 0 -13 -7 -32 -16 -43 -8 -10 -12 -13 -8 -5
5 9 -2 8 -19 -5 -15 -10 -27 -25 -27 -31 0 -19 -38 -16 -49 4 -6 10 -11 12
-11 6 0 -24 -3 -28 -34 -43 l-30 -14 33 -10 c25 -7 35 -6 42 5 6 10 9 10 9 2
0 -7 6 -13 14 -13 21 0 30 -19 16 -35 -7 -8 -10 -26 -8 -40 3 -14 -1 -33 -8
-42 -7 -10 -14 -29 -14 -43 0 -14 -6 -34 -14 -45 -23 -33 -36 -95 -25 -117 16
-31 1 -55 -49 -79 -26 -12 -55 -31 -64 -43 -16 -20 -16 -22 4 -43 12 -13 27
-23 33 -23 17 0 45 -33 45 -53 0 -16 349 -17 5225 -17 l5225 0 0 4480 0 4480
-5772 -1 c-3175 -1 -5751 -5 -5724 -10 34 -5 62 -19 95 -47 62 -53 82 -91 88
-166 10 -117 -41 -232 -141 -322 -70 -64 -82 -71 -178 -105 -62 -22 -100 -30
-153 -30 -189 1 -243 41 -253 188 -12 194 76 361 230 436 40 20 89 40 108 45
23 7 -271 10 -852 11 l-888 1 0 -1942z m4058 1640 c23 -6 45 -14 48 -19 3 -5
18 -9 34 -9 16 0 32 -4 35 -10 3 -5 13 -10 21 -10 25 0 119 -70 133 -99 7 -14
16 -69 21 -121 6 -75 4 -105 -8 -145 -15 -48 -71 -136 -105 -164 -10 -7 -17
-20 -17 -28 0 -17 -63 -101 -89 -120 -12 -8 -17 -20 -14 -33 4 -14 0 -20 -11
-20 -14 0 -16 -15 -16 -99 0 -56 -4 -101 -10 -103 -5 -1 -11 -47 -13 -101 -3
-70 -9 -102 -20 -115 -8 -9 -19 -30 -23 -47 -4 -16 -11 -35 -16 -41 -4 -6 -7
-18 -5 -25 2 -8 2 -11 0 -7 -3 4 -14 -1 -26 -12 -11 -11 -27 -20 -34 -20 -7 0
-13 -6 -13 -13 0 -25 -111 -40 -217 -30 -61 7 -121 7 -158 1 -33 -5 -77 -11
-98 -14 -24 -4 -49 0 -73 11 -19 9 -44 17 -54 18 -24 2 -25 10 -6 27 35 28 50
137 23 165 -20 19 -61 35 -93 35 -13 0 -29 9 -36 20 -7 11 -16 20 -19 20 -12
0 -129 124 -129 136 0 6 -9 23 -20 37 -25 32 -53 120 -52 163 1 38 -28 73 -69
81 -19 4 -29 12 -29 24 0 11 -13 22 -35 31 -30 10 -38 19 -47 55 -6 24 -14 43
-19 43 -5 0 -9 18 -9 40 0 22 -4 40 -10 40 -11 0 8 48 27 68 7 7 13 18 13 23
0 5 7 9 15 9 8 0 19 9 25 20 6 11 17 20 25 20 8 0 15 9 15 19 0 15 10 21 40
26 25 4 40 12 40 21 0 10 14 14 53 14 84 0 219 21 235 36 7 8 19 14 27 14 7 0
26 7 41 15 16 8 36 15 44 16 8 0 29 9 45 20 17 10 46 26 65 35 19 9 62 28 95
43 121 56 141 64 190 72 60 9 223 2 283 -13z m-3288 -888 c109 -32 130 -68
130 -224 0 -96 -12 -166 -29 -166 -4 0 -13 -11 -19 -24 -13 -29 -61 -40 -113
-26 -29 8 -39 16 -39 30 0 13 -7 20 -20 20 -16 0 -20 7 -20 30 0 23 -4 30 -20
30 -17 0 -20 7 -20 40 0 22 -4 40 -10 40 -5 0 -10 7 -10 15 0 8 -4 15 -10 15
-5 0 -10 9 -10 20 0 13 -7 20 -20 20 -13 0 -20 7 -20 20 0 12 -12 26 -30 35
-16 9 -30 21 -30 28 0 20 60 71 110 95 56 27 94 28 180 2z m2614 -762 c5 -10
7 -10 12 0 7 16 29 15 57 -2 14 -8 57 -13 124 -14 92 -1 107 -4 161 -31 33
-16 62 -28 64 -25 8 8 88 -84 88 -101 0 -9 -7 -23 -15 -31 -8 -9 -15 -24 -15
-34 0 -19 -66 -60 -96 -60 -6 0 -17 -7 -24 -15 -7 -8 -30 -18 -51 -21 -22 -4
-39 -9 -39 -13 0 -4 -20 -13 -45 -20 -52 -15 -252 -12 -263 5 -4 5 -26 24 -49
43 -24 18 -43 41 -43 52 0 10 -4 19 -10 19 -17 0 -12 86 5 100 9 7 14 19 11
27 -3 7 -1 13 5 13 6 0 8 4 5 9 -3 4 3 16 14 26 11 10 20 24 20 31 0 7 9 16
20 19 11 3 20 13 20 21 0 17 36 19 44 2z m2420 -188 c13 0 31 -9 41 -20 10
-11 23 -20 29 -20 6 0 22 -18 36 -40 13 -22 28 -40 32 -40 4 0 8 -7 8 -15 0
-8 5 -15 10 -15 6 0 10 -6 10 -13 0 -16 99 -113 125 -122 11 -4 38 -27 59 -51
37 -42 39 -47 30 -82 -13 -51 -48 -67 -150 -65 -53 1 -92 7 -112 17 -17 9 -43
16 -57 16 -26 0 -111 36 -121 51 -3 5 -13 9 -22 9 -10 0 -28 10 -42 23 -14 13
-40 32 -57 42 -18 11 -33 22 -33 25 0 3 -9 20 -21 39 -29 47 -31 181 -4 211
10 11 23 20 28 20 5 0 15 7 21 16 7 9 32 18 61 20 27 3 51 7 53 9 2 2 15 0 29
-6 13 -5 35 -9 47 -9z m4088 -2560 c129 -40 229 -126 285 -246 26 -54 28 -69
28 -174 0 -102 -3 -124 -29 -193 -15 -42 -32 -80 -38 -83 -5 -3 -2 11 8 33 39
89 46 133 42 247 -3 96 -8 120 -32 173 -36 78 -104 143 -194 186 -55 26 -79
32 -137 32 -96 0 -126 -19 -192 -120 -28 -44 -70 -108 -92 -142 l-41 -63 27
-5 c162 -34 306 -75 456 -129 53 -19 118 -38 143 -42 46 -7 46 -7 41 -41 -4
-19 -20 -64 -37 -100 -34 -74 -35 -77 -17 -67 7 4 9 3 4 -2 -5 -5 -12 -9 -15
-10 -4 0 -48 -40 -97 -90 -89 -88 -207 -169 -233 -159 -8 3 -10 0 -6 -7 5 -8
2 -9 -10 -5 -9 4 -15 3 -12 -2 3 -4 -6 -13 -20 -20 -31 -14 -44 -14 -24 0 19
14 11 11 -90 -31 -101 -42 -251 -80 -325 -83 -68 -2 -124 20 -150 59 -14 23
-13 31 19 137 53 174 107 467 86 467 -22 0 -8 21 24 37 19 9 37 25 40 37 3 13
30 33 72 55 47 25 76 48 104 85 38 51 100 152 100 163 0 3 -16 -7 -36 -22 -27
-20 -33 -23 -25 -9 33 57 97 106 176 133 76 26 117 26 197 1z m643 -713 c-6
-21 3 -29 72 -70 81 -48 180 -140 206 -192 8 -16 42 -66 75 -111 99 -133 162
-280 162 -377 0 -53 -19 -62 -117 -59 l-85 3 5 -38 c19 -131 19 -142 1 -200
-78 -247 -453 -552 -919 -746 -120 -50 -381 -148 -405 -151 -44 -7 -80 -19
-80 -26 0 -7 -247 -58 -323 -66 -22 -2 -56 -9 -74 -15 -19 -6 -41 -8 -49 -5
-9 3 -21 3 -27 -1 -13 -8 -29 -11 -97 -17 -43 -4 -155 -31 -302 -75 -98 -28
-84 -10 20 27 79 27 162 59 407 154 210 81 391 174 575 294 52 34 147 87 210
119 63 31 133 66 155 77 153 80 188 99 221 122 21 14 42 26 46 26 10 0 384
236 412 259 14 11 17 12 11 2 -5 -10 -4 -12 3 -7 7 4 12 14 12 21 0 8 11 34
25 59 33 58 32 66 -8 66 -24 0 -45 -10 -74 -35 -51 -44 -172 -84 -267 -89 -41
-2 -90 -12 -116 -23 -25 -11 -62 -23 -82 -27 -42 -8 -108 -40 -138 -68 -10
-10 -23 -18 -29 -18 -5 0 -11 -5 -13 -11 -6 -17 -100 -32 -110 -17 -4 7 -6 18
-3 25 6 18 -14 27 -52 25 -28 -2 -35 2 -43 23 -13 34 -13 33 8 38 10 2 -1 9
-28 16 -56 17 -235 9 -250 -11 -3 -3 -54 -9 -115 -12 -158 -9 -182 -13 -273
-47 -13 -5 -36 -9 -52 -9 -16 0 -32 -4 -35 -10 -10 -15 -119 -12 -151 5 -16 8
-54 15 -84 16 -30 0 -73 3 -95 7 l-40 8 30 19 c17 10 48 33 70 50 66 52 209
134 278 160 36 13 171 51 299 84 128 33 266 71 306 86 178 64 349 161 457 256
28 25 64 55 80 68 17 12 55 46 85 76 31 29 71 62 90 72 45 25 115 112 171 212
24 45 45 81 47 81 1 0 0 -10 -3 -23z m1165 -273 c36 -10 83 -28 105 -41 87
-49 172 -85 244 -104 42 -11 102 -28 134 -39 31 -11 65 -20 74 -20 32 0 377
-162 407 -191 70 -67 116 -91 193 -102 41 -6 50 -12 68 -48 9 -16 22 -29 31
-29 9 0 30 -14 47 -31 29 -30 30 -32 11 -42 -10 -7 -48 -12 -84 -12 -75 -1
-87 -4 -112 -27 -10 -10 -33 -18 -52 -18 -40 0 -59 -19 -51 -53 4 -15 1 -30
-9 -40 -9 -8 -16 -20 -16 -26 0 -6 -9 -16 -20 -23 -11 -7 -20 -19 -20 -26 0
-7 -4 -11 -9 -8 -5 3 -11 -1 -15 -9 -3 -8 -12 -15 -21 -15 -8 0 -15 -4 -15
-10 0 -5 -7 -10 -16 -10 -22 0 -72 -37 -79 -59 -10 -34 -118 -53 -170 -29 -23
10 -36 38 -17 38 12 0 30 106 26 155 -5 81 -15 110 -42 128 -15 9 -41 28 -59
41 -33 24 -45 26 -288 41 -38 3 -86 9 -105 15 -45 13 -90 13 -90 0 0 -5 -8
-10 -18 -10 -9 0 -39 -22 -65 -50 -43 -45 -47 -53 -47 -98 0 -44 4 -54 39 -88
32 -33 37 -43 29 -63 -8 -23 -10 -24 -113 -19 -57 3 -110 9 -117 15 -7 6 -41
25 -75 43 -35 17 -63 35 -63 39 0 5 -21 11 -46 15 -48 6 -74 24 -74 50 0 20
-14 20 -30 1 -19 -22 -30 -18 -30 11 0 24 3 26 30 21 17 -4 30 -2 30 3 0 6 7
10 16 10 8 0 22 7 30 15 23 23 44 8 37 -26 -3 -18 -1 -29 6 -29 6 0 11 9 11
20 0 22 15 27 23 8 4 -10 8 -10 14 -2 4 7 19 14 33 15 30 5 55 26 64 57 4 12
12 22 17 22 6 0 7 5 4 10 -3 6 -21 10 -39 10 -17 0 -37 5 -44 12 -7 7 -12 9
-12 6 0 -3 -27 0 -60 8 -75 17 -140 57 -140 85 0 11 -4 17 -10 14 -5 -3 -10 0
-10 8 0 16 21 27 49 27 9 0 34 9 56 20 47 24 137 26 320 9 109 -11 124 -10
158 6 36 17 37 18 37 75 0 77 -24 105 -126 149 -168 70 -173 73 -189 107 -20
43 -19 90 3 104 24 15 174 6 252 -16z m1232 -2764 c2 -129 6 -163 18 -170 10
-7 -5 -10 -49 -10 -51 0 -62 3 -53 12 8 8 12 57 12 154 0 136 -1 144 -22 158
-21 15 -20 16 34 16 l56 0 4 -160z m-372 60 c0 -26 4 -30 28 -31 l27 -2 -27
-4 c-28 -4 -28 -5 -28 -84 0 -65 3 -81 16 -86 11 -4 22 1 30 12 10 14 14 15
14 4 -1 -32 -27 -50 -66 -47 -50 4 -64 31 -64 126 0 68 -1 72 -22 73 l-23 2
23 4 c17 3 22 11 22 34 0 27 3 29 35 29 32 0 35 -2 35 -30z m-579 -49 c50 -50
37 -150 -23 -182 -19 -10 -20 -9 -13 7 13 31 8 54 -19 88 -32 42 -42 82 -26
101 19 23 49 18 81 -14z m203 18 c29 -14 36 -34 36 -116 0 -49 3 -63 15 -63 8
0 15 5 15 12 0 6 3 9 6 6 3 -4 1 -16 -6 -27 -12 -23 -67 -30 -87 -10 -8 8 -17
8 -31 0 -34 -18 -80 -13 -92 10 -22 39 -8 62 53 92 31 15 57 34 57 42 0 47
-37 62 -42 18 -3 -24 -8 -28 -33 -28 -24 0 -31 5 -33 23 -6 40 86 66 142 41z
m219 5 c33 -6 37 -10 37 -35 0 -16 -2 -29 -4 -29 -3 0 -19 14 -36 31 -28 29
-33 30 -47 16 -23 -23 -9 -45 41 -67 53 -22 68 -57 45 -99 -14 -24 -21 -26
-81 -26 -37 0 -68 2 -71 5 -2 3 -7 19 -11 35 l-7 30 30 -33 c23 -25 38 -33 59
-30 40 4 43 44 5 60 -57 24 -83 48 -83 76 0 35 10 49 40 61 31 12 36 12 83 5z
m386 -9 c23 -11 51 -57 51 -81 0 -2 -29 -4 -65 -4 -64 0 -65 0 -65 -28 0 -65
53 -91 104 -51 14 11 26 16 26 10 0 -23 -53 -51 -97 -51 -55 0 -78 12 -98 50
-54 104 43 208 144 155z m274 -3 c-9 -6 -6 -22 14 -62 l25 -55 19 40 c22 47
24 71 7 78 -7 3 5 6 26 6 34 1 37 -1 23 -11 -8 -7 -30 -49 -47 -93 -72 -182
-103 -221 -156 -197 -36 17 -30 56 9 60 22 3 30 -1 34 -17 7 -29 18 -26 36 10
13 28 13 36 0 68 -32 76 -83 169 -95 174 -7 3 16 6 52 6 36 0 60 -3 53 -7z"/>
<path d="M10570 2305 c-7 -8 -16 -15 -21 -15 -8 0 -117 -80 -147 -107 -7 -7
-20 -13 -28 -13 -8 0 -14 -3 -14 -8 0 -4 -9 -12 -19 -17 -84 -43 -131 -70
-131 -76 0 -4 -16 -13 -35 -19 -19 -6 -35 -15 -35 -18 0 -4 -14 -13 -31 -21
-17 -7 -61 -33 -98 -57 -36 -24 -72 -44 -78 -44 -7 0 -13 -5 -13 -11 0 -5 -5
-7 -10 -4 -6 3 -22 -2 -38 -12 -15 -10 -47 -28 -72 -39 -25 -12 -88 -42 -140
-67 -52 -25 -140 -67 -195 -93 -112 -53 -111 -52 -102 -60 3 -3 20 1 38 10 18
9 38 16 46 16 8 0 12 4 9 9 -3 5 1 12 10 15 10 4 13 2 8 -6 -5 -7 -2 -9 7 -5
8 3 76 31 152 61 75 30 161 67 190 82 28 14 83 39 120 54 70 29 206 106 219
125 5 6 8 5 8 -3 0 -9 12 -6 40 8 25 13 38 25 34 32 -4 6 -3 8 3 5 5 -3 35 10
67 29 61 37 71 40 60 22 -4 -7 -3 -8 5 -4 6 4 9 11 7 15 -3 4 5 13 17 21 21
12 21 12 8 -6 -8 -10 1 -5 20 12 128 117 199 204 166 204 -8 0 -20 -7 -27 -15z"/>
<path d="M7566 5641 c-14 -21 -30 -41 -37 -43 -6 -2 4 -15 24 -28 43 -30 67
-68 67 -108 0 -49 -58 -90 -197 -140 -65 -23 -102 -39 -83 -36 58 11 204 62
253 90 44 24 55 35 101 98 11 15 33 28 52 32 40 7 36 19 -14 40 -50 20 -80 50
-88 88 -12 58 -44 61 -78 7z"/>
<path d="M9205 5359 c-33 -10 -68 -19 -77 -19 -18 0 -25 -17 -27 -63 -1 -32
-13 -58 -37 -82 -12 -11 -13 -20 -6 -27 12 -12 38 0 66 31 15 16 16 24 7 35
-8 10 -9 15 -1 18 6 2 12 12 14 23 4 29 32 42 57 27 18 -12 24 -11 44 8 23 22
65 21 65 -1 0 -6 5 -7 10 -4 17 11 11 54 -9 65 -25 13 -34 12 -106 -11z"/>
<path d="M9305 5250 c-10 -11 -25 -20 -34 -20 -14 0 -14 -2 -1 -10 8 -5 10
-10 3 -10 -6 0 -9 -8 -6 -18 3 -13 -4 -22 -24 -31 -16 -8 -23 -16 -15 -18 6
-3 10 -9 7 -13 -3 -5 -12 -7 -20 -3 -23 8 -44 -14 -40 -43 2 -21 -1 -25 -19
-20 -24 6 -61 -18 -51 -33 3 -6 4 -11 1 -11 -3 0 -10 9 -16 20 -6 11 -7 19 -3
18 14 -5 48 27 51 47 2 15 -4 20 -24 22 -15 0 -31 7 -36 15 -8 10 -9 9 -4 -4
6 -21 -33 -51 -61 -47 -24 4 -65 -19 -58 -32 4 -5 1 -8 -7 -7 -7 2 -13 -4 -13
-12 0 -16 -20 -28 -45 -29 -12 0 -11 2 3 10 19 11 23 30 5 27 -7 -2 -12 5 -13
15 0 12 12 24 34 33 29 12 32 12 28 -1 -4 -9 -1 -12 9 -8 7 3 14 16 14 30 0
22 -2 24 -15 13 -9 -7 -18 -10 -22 -7 -3 4 -12 2 -19 -4 -8 -6 -21 -9 -29 -5
-9 3 -24 -3 -35 -14 -11 -11 -24 -20 -30 -20 -5 0 -10 -4 -10 -10 0 -5 4 -10
9 -10 6 0 13 5 16 10 8 12 25 13 25 2 0 -5 -10 -14 -22 -21 -22 -11 -22 -11 5
-8 46 7 30 -8 -24 -22 -43 -11 -53 -11 -60 0 -6 11 -14 9 -39 -9 -17 -13 -36
-21 -43 -18 -7 2 -5 5 5 5 9 1 20 6 24 13 5 8 2 9 -9 5 -10 -3 -17 -2 -17 3 0
5 -13 4 -31 -2 -16 -6 -28 -13 -25 -15 8 -8 -13 -43 -25 -43 -6 0 -6 6 0 19
10 18 6 31 -11 31 -5 0 -6 -4 -3 -10 9 -14 -8 -13 -23 2 -9 9 -12 9 -12 -1 0
-7 -5 -9 -12 -5 -7 4 -8 3 -4 -5 4 -6 0 -14 -9 -17 -12 -5 -13 -9 -4 -14 8 -6
5 -11 -11 -20 -20 -10 -21 -10 -16 8 8 24 -27 37 -45 16 -9 -11 -14 -10 -30 9
-15 18 -18 19 -19 5 0 -18 -33 -33 -50 -23 -5 3 -10 1 -10 -5 0 -7 -7 -10 -15
-7 -8 4 -17 2 -20 -3 -3 -5 -12 -7 -20 -3 -9 3 -15 -1 -15 -10 0 -15 4 -15 42
-1 22 8 43 12 46 9 3 -3 0 -5 -7 -5 -7 0 -9 -5 -5 -12 4 -7 3 -8 -5 -4 -6 4
-14 0 -17 -9 -4 -10 -10 -12 -18 -7 -13 10 -70 -10 -60 -21 4 -4 -2 -7 -13 -7
-14 0 -24 10 -32 30 -5 17 -13 30 -16 30 -3 0 -4 -4 0 -9 3 -5 -4 -12 -15 -16
-11 -3 -20 -11 -20 -16 0 -6 -9 -8 -20 -4 -10 3 -29 1 -41 -6 -18 -9 -25 -9
-34 4 -7 10 -16 13 -25 7 -8 -5 -18 -6 -24 -3 -5 3 -6 1 -2 -5 5 -8 -2 -12
-18 -12 -14 0 -35 -9 -46 -20 -24 -24 -29 -24 -50 -5 -15 14 -21 13 -54 -10
-44 -30 -44 -30 -42 -7 1 12 -5 16 -24 14 -14 -1 -41 -3 -60 -5 -22 -1 -39 -9
-46 -21 -8 -13 -13 -15 -18 -7 -11 17 -30 13 -44 -10 -12 -19 -11 -20 8 -14
37 12 90 15 90 6 0 -5 -8 -8 -17 -7 -10 0 -17 -5 -15 -12 1 -8 -2 -11 -7 -8
-5 4 -12 2 -16 -4 -3 -5 -11 -10 -16 -10 -6 0 -7 5 -3 11 4 6 -1 9 -12 8 -11
-2 -25 1 -33 5 -11 7 -13 5 -7 -9 7 -18 6 -18 -13 -1 -19 17 -20 17 -31 -3 -6
-12 -8 -27 -4 -34 4 -6 4 -9 -1 -5 -4 4 -15 2 -23 -4 -14 -12 -42 -20 -42 -12
0 3 11 9 25 14 16 6 23 15 19 25 -3 8 -10 12 -15 9 -5 -3 -6 3 -2 12 6 16 4
16 -25 -1 -17 -10 -29 -22 -26 -27 3 -4 -2 -5 -10 -2 -8 3 -14 13 -13 23 1 17
9 19 80 21 20 1 37 6 37 11 0 5 6 9 13 8 23 -3 37 1 37 11 0 13 -55 6 -74 -10
-9 -7 -16 -8 -16 -3 0 13 -53 10 -68 -4 -7 -7 -26 -13 -42 -13 -16 0 -32 -5
-35 -10 -4 -6 -10 -8 -15 -5 -5 3 -19 -4 -30 -15 -11 -11 -26 -18 -32 -14 -6
4 -8 3 -5 -3 8 -13 -29 -47 -42 -39 -6 4 -20 2 -31 -4 -15 -8 -20 -8 -20 2 0
9 -3 9 -11 -2 -8 -12 -12 -12 -16 -2 -3 9 -11 4 -23 -16 -18 -29 -74 -49 -86
-30 -3 4 -13 4 -24 -2 -14 -7 -20 -6 -24 7 -4 9 -9 13 -12 10 -3 -3 -19 -1
-35 3 -24 7 -33 5 -49 -13 -11 -11 -20 -15 -20 -9 0 7 -5 12 -11 12 -5 0 -7
-5 -4 -10 4 -6 -16 -20 -44 -33 -50 -22 -67 -40 -33 -36 44 4 71 -1 66 -14 -6
-16 81 -23 91 -7 3 6 11 7 17 4 6 -4 17 1 24 11 8 11 21 16 34 12 11 -3 23 -1
26 4 3 5 10 7 16 3 5 -3 22 6 38 21 16 16 36 25 47 23 15 -4 13 -7 -12 -18
-16 -8 -31 -15 -33 -16 -2 -1 1 -12 8 -23 9 -17 20 -21 58 -20 26 0 60 5 75
11 21 8 34 8 52 -2 34 -18 59 -6 51 25 -8 30 19 65 50 65 12 0 34 10 49 22 26
20 29 20 40 5 10 -14 14 -15 24 -4 6 8 8 17 4 20 -3 4 1 7 10 7 9 0 21 8 26
18 10 16 10 16 11 -2 0 -15 3 -16 15 -6 8 7 12 17 9 22 -4 6 6 2 20 -8 29 -19
20 -34 -20 -34 -12 0 -27 -7 -34 -15 -7 -8 -9 -15 -4 -15 4 0 3 -5 -4 -12 -15
-15 -80 -38 -109 -38 -22 0 -53 -24 -53 -40 0 -11 185 -4 290 11 41 6 97 13
124 15 27 3 56 9 65 13 9 5 35 9 58 9 23 1 51 6 62 11 11 6 29 11 40 11 11 0
27 7 36 16 9 9 18 14 21 11 3 -3 28 1 56 9 27 9 57 13 65 10 8 -3 11 -1 8 4
-12 20 21 39 51 30 l29 -8 -27 -1 c-15 -1 -29 -5 -33 -10 -11 -18 49 -4 72 17
32 28 105 53 84 29 -7 -9 0 -13 22 -14 24 -2 28 0 17 7 -12 8 -12 10 5 11 34
2 39 4 63 17 13 7 31 15 40 17 41 8 48 11 59 25 15 20 9 28 -22 25 -14 -2 -23
0 -21 4 3 4 17 7 33 6 20 0 28 -5 27 -18 -1 -9 3 -17 8 -17 6 0 4 -7 -3 -17
-13 -15 -12 -15 8 -2 13 8 21 20 18 29 -3 8 4 21 15 28 15 9 20 9 20 0 0 -9 3
-9 12 0 15 15 41 16 36 0 -2 -6 -15 -13 -28 -15 -24 -4 -40 -19 -39 -38 0 -5
3 -4 6 3 2 6 10 9 16 5 20 -12 55 -14 62 -3 3 5 0 7 -8 4 -8 -3 -18 0 -22 5
-3 6 -11 8 -17 5 -6 -4 -8 -2 -5 4 4 5 16 8 27 5 16 -4 20 0 20 21 0 21 5 26
26 26 15 0 33 8 41 18 8 9 11 11 7 3 -5 -10 -1 -11 17 -6 13 4 26 12 27 16 2
5 8 9 13 9 4 0 6 -7 3 -15 -4 -8 -12 -15 -19 -15 -8 0 -16 -4 -20 -9 -6 -11
41 -8 53 3 4 4 7 13 7 19 0 5 6 12 14 15 8 3 11 0 7 -7 -4 -6 -1 -11 7 -11 15
0 30 24 20 33 -3 3 -16 2 -29 -3 -13 -5 -32 -6 -41 -2 -14 5 -12 8 12 12 17 3
29 11 28 16 -1 6 18 20 43 32 24 12 44 18 44 14 0 -4 -16 -14 -35 -21 -19 -7
-35 -17 -35 -22 0 -12 17 -12 25 1 8 13 35 13 35 -1 0 -5 -6 -7 -12 -3 -8 5
-8 2 1 -10 11 -13 11 -16 1 -14 -7 2 -15 -3 -17 -10 -6 -17 28 -3 44 17 9 12
9 18 0 23 -9 6 -8 8 1 8 7 0 11 4 7 9 -3 5 -1 13 5 16 6 4 10 3 9 -2 -1 -4 1
-16 6 -26 4 -10 2 -23 -4 -31 -6 -7 -8 -16 -4 -19 3 -4 -1 -8 -10 -8 -25 -2
-30 -4 -55 -17 -12 -7 -27 -10 -32 -7 -6 4 -13 -1 -16 -9 -3 -9 -11 -16 -18
-16 -6 0 -16 -8 -22 -18 -10 -16 -7 -17 25 -16 31 1 36 4 35 23 -1 17 4 21 18
18 10 -3 18 -1 18 3 0 5 20 18 43 28 43 19 53 39 34 69 -4 6 -3 14 3 18 6 4 7
12 3 18 -5 8 -2 8 9 0 20 -17 31 -4 15 16 -10 14 -10 14 4 3 9 -7 21 -11 27
-10 5 2 10 -1 10 -7 0 -5 -4 -9 -10 -7 -5 1 -7 -2 -3 -8 3 -5 0 -8 -7 -5 -7 3
-20 0 -28 -5 -13 -9 -13 -11 -1 -19 9 -6 19 -4 29 5 8 8 19 13 26 11 6 -2 19
7 29 20 22 27 37 30 37 6 0 -9 -3 -14 -6 -11 -3 3 -17 -5 -31 -18 -14 -13 -29
-21 -34 -19 -4 3 -10 1 -14 -5 -3 -5 -14 -10 -23 -10 -11 0 -18 -8 -19 -20 -2
-19 0 -19 23 -4 13 9 24 13 24 9 0 -3 7 1 16 10 9 9 23 14 31 11 8 -4 17 3 22
17 5 12 11 21 15 20 21 -9 48 1 74 25 23 22 29 34 25 55 -4 21 -2 26 10 22 8
-4 21 0 28 7 8 8 23 18 34 23 18 8 17 9 -9 13 l-29 4 24 12 c16 8 26 23 29 46
4 30 9 35 29 32 18 -2 22 2 17 14 -3 8 -6 18 -6 20 0 2 -9 4 -19 4 -11 0 -23
5 -26 10 -10 16 -30 12 -50 -10z"/>
<path d="M6191 4683 c5 -12 7 -23 6 -24 -14 -5 -47 -4 -47 2 0 4 -12 6 -26 3
-19 -3 -24 -1 -18 8 4 7 -2 4 -15 -6 -16 -15 -18 -22 -9 -27 9 -6 5 -11 -11
-17 -22 -8 -21 -10 22 -24 26 -8 47 -11 47 -6 0 5 10 3 23 -3 12 -6 19 -8 15
-4 -4 5 -3 14 3 21 9 11 15 9 31 -6 21 -19 71 -21 145 -6 13 3 25 1 28 -4 3
-5 12 -7 19 -4 7 3 16 -2 19 -10 8 -19 38 -13 77 15 22 17 27 25 18 31 -8 5
-3 7 12 4 14 -2 33 1 43 6 30 16 1 41 -40 35 -18 -3 -33 -2 -33 2 0 5 -21 8
-46 7 -38 0 -44 -3 -41 -18 3 -9 -1 -22 -9 -29 -11 -9 -14 -8 -15 7 -3 44 -5
49 -19 45 -8 -2 -23 -5 -33 -6 -10 -1 -22 -6 -26 -13 -8 -14 -47 -8 -43 7 2
13 -24 15 -32 2 -4 -5 0 -12 6 -15 7 -3 4 -4 -7 -3 -25 3 -36 17 -30 38 3 9
-1 16 -9 16 -11 0 -12 -6 -5 -24z"/>
<path d="M0 1815 l0 -175 30 0 c17 0 30 4 30 9 0 5 9 11 20 14 39 10 23 27
-52 51 -14 4 -18 16 -18 50 0 38 5 49 35 77 29 28 35 40 35 76 0 36 -3 43 -20
43 -11 0 -20 7 -20 15 0 8 -9 15 -20 15 -19 0 -20 -7 -20 -175z"/>
<path d="M175 1450 c-3 -5 -12 -7 -20 -4 -8 4 -18 -1 -21 -10 -5 -12 -21 -16
-70 -16 l-64 0 0 -48 c0 -41 4 -51 22 -61 22 -10 22 -11 2 -6 -18 5 -22 1 -22
-22 0 -16 5 -32 12 -36 8 -6 8 -10 -1 -14 -7 -2 -13 -15 -13 -27 0 -21 4 -23
45 -21 24 1 42 -2 39 -6 -2 -4 3 -9 13 -11 14 -2 11 -7 -11 -21 -20 -13 -31
-16 -39 -8 -7 7 -16 7 -29 0 -23 -12 -23 -28 -1 -45 17 -13 17 -13 1 -14 -10
0 -18 -5 -18 -10 0 -7 6 -8 16 -2 31 17 104 -15 74 -33 -5 -3 -10 -1 -10 4 0
17 -46 13 -61 -5 -10 -13 -10 -17 2 -25 13 -8 6 -13 -14 -10 -4 0 -7 -6 -7
-14 0 -8 6 -15 13 -15 8 0 9 -2 1 -8 -9 -5 -12 -140 -13 -485 l-2 -477 271 0
c148 0 270 4 270 8 0 5 -32 23 -70 42 -76 37 -88 59 -45 78 32 15 145 16 145
2 0 -16 27 -12 34 5 3 8 17 20 31 25 20 8 25 16 26 47 0 21 3 33 5 28 2 -6 20
-9 39 -7 24 3 42 -2 61 -17 29 -23 88 -28 100 -10 4 7 7 24 8 38 2 40 36 38
95 -3 49 -35 91 -47 91 -26 0 15 -38 50 -65 60 -14 5 -25 16 -25 24 0 15 52
46 76 46 15 0 28 35 19 50 -3 5 -22 12 -43 15 -20 4 -46 9 -57 12 -16 3 -17 2
-5 -6 8 -5 11 -13 7 -17 -9 -9 -38 16 -31 27 3 5 0 9 -5 9 -6 0 -11 5 -11 10
0 6 7 10 15 10 18 0 19 14 3 40 -19 30 -5 32 48 5 27 -14 60 -25 74 -24 14 0
19 3 13 6 -7 2 -13 11 -13 19 0 8 -5 23 -12 33 -16 26 -3 51 26 51 14 0 28 5
32 12 4 6 3 8 -3 5 -6 -4 -11 3 -11 17 0 21 5 24 27 20 14 -2 21 -1 15 3 -13
10 -4 37 14 40 16 4 16 -14 -1 -20 -6 -3 -3 -5 8 -4 13 1 21 8 21 18 0 10 -3
16 -7 14 -3 -3 -11 7 -18 21 -6 14 -16 22 -22 19 -5 -4 -18 0 -28 9 -17 15
-19 15 -24 1 -4 -9 -15 -14 -29 -11 -23 3 -24 22 0 20 14 -2 16 22 2 31 -5 3
-10 1 -10 -5 0 -6 -5 -8 -10 -5 -6 4 -7 11 -4 17 4 7 2 8 -5 4 -6 -4 -9 -12
-6 -17 6 -9 -7 -13 -31 -10 -7 1 -14 -5 -18 -14 -3 -8 -1 -15 5 -15 6 0 8 -7
5 -16 -4 -12 -1 -14 14 -9 13 4 20 2 20 -6 0 -7 -3 -9 -7 -6 -3 4 -12 2 -19
-4 -10 -9 -15 -7 -20 5 -4 9 -23 19 -45 22 -22 4 -42 11 -45 15 -3 5 -14 9
-24 9 -19 0 -36 17 -27 26 5 5 28 11 50 13 4 1 7 5 7 11 0 5 -3 9 -7 9 -5 -1
-15 -1 -23 0 -12 1 -10 5 5 17 17 13 18 16 5 24 -15 10 -42 14 -72 11 -10 -1
-18 4 -18 13 0 9 6 17 13 17 6 1 -4 5 -23 8 -19 4 -41 3 -48 -3 -8 -6 -17 -5
-24 2 -7 7 -8 12 -2 12 5 0 2 5 -6 10 -12 8 -11 10 7 10 17 0 21 -4 17 -17 -5
-17 -4 -17 9 0 10 12 17 14 22 8 3 -6 11 -11 18 -11 6 0 1 7 -11 16 -12 8 -20
19 -17 24 3 4 -10 4 -29 0 -39 -9 -59 0 -51 22 4 10 15 13 36 10 l31 -5 -22
26 c-19 21 -26 24 -43 16 -13 -8 -22 -8 -30 0 -9 9 -6 13 11 17 13 4 22 14 22
26 0 15 3 17 19 8 25 -13 61 -13 61 0 0 6 8 10 18 10 16 1 16 1 0 14 -25 19
-23 22 13 20 17 -1 27 1 24 4 -8 9 -155 10 -155 2 0 -3 6 -12 13 -19 8 -9 2
-8 -19 2 -26 14 -34 14 -49 3 -10 -7 -28 -11 -39 -9 -20 5 -20 4 1 -14 l23
-18 -35 -1 c-20 0 -31 4 -28 9 4 6 -3 8 -15 5 -13 -4 -25 -1 -30 7 -8 14 -92
26 -92 13 0 -5 -13 -8 -30 -8 -20 0 -30 5 -30 15 0 12 -9 14 -35 11 -19 -3
-35 -1 -35 4 0 4 -15 10 -34 12 -19 2 -32 0 -29 -5 3 -5 -12 -6 -33 -3 -46 8
-57 16 -20 16 23 0 26 3 21 20 -5 14 -2 20 9 20 9 0 16 5 16 10 0 6 9 10 20
10 11 0 20 -5 20 -11 0 -5 4 -8 9 -4 5 3 16 -2 25 -10 11 -12 25 -14 51 -9 34
6 51 -8 23 -19 -8 -4 -7 -6 3 -6 10 -1 19 9 23 24 4 16 13 25 26 25 12 0 17 5
14 14 -3 8 3 16 15 19 14 3 19 11 15 20 -3 8 0 18 7 23 8 4 10 3 5 -4 -5 -8 2
-12 18 -12 31 0 68 -34 60 -54 -4 -10 0 -13 13 -10 11 3 25 -2 32 -10 11 -13
11 -16 -1 -16 -7 0 -21 -9 -30 -19 -15 -18 -15 -19 8 -24 13 -2 24 -1 24 3 0
10 87 40 116 40 31 0 37 13 14 33 -16 13 -33 16 -86 11 -52 -4 -64 -2 -58 8 5
7 9 18 9 23 0 6 16 9 35 7 27 -2 32 0 23 9 -14 14 -54 18 -70 7 -7 -6 -17 -1
-27 14 -9 12 -16 19 -16 14 0 -5 -7 -3 -15 4 -11 9 -34 10 -82 5 -108 -12
-133 -13 -139 -3 -3 5 -13 7 -22 4 -10 -2 -34 -7 -54 -10 -29 -5 -36 -10 -31
-24 3 -9 13 -23 21 -29 9 -7 14 -13 11 -14 -40 -7 -66 -3 -78 14 -9 13 -16 16
-24 8 -13 -13 -27 -14 -27 -3 0 14 75 51 118 58 23 4 45 11 48 15 3 5 16 9 30
9 18 0 24 5 24 23 0 16 -3 18 -9 8 -7 -11 -11 -9 -20 8 -7 11 -20 21 -30 21
-51 0 -19 40 39 47 42 6 47 12 28 31 -14 14 -84 16 -93 2z m231 -441 c3 -6 17
-9 30 -6 14 2 27 0 30 -5 4 -7 9 -6 13 0 3 6 18 8 34 5 l27 -5 -23 -22 c-13
-12 -22 -27 -19 -34 2 -7 -3 -12 -12 -12 -10 0 -13 6 -10 15 4 8 1 15 -5 15
-6 0 -10 -3 -10 -7 3 -21 -4 -22 -36 -9 -26 11 -35 12 -35 3 0 -7 -4 -6 -10 3
-7 12 -12 12 -22 2 -14 -14 -32 -16 -23 -2 3 6 -1 10 -9 10 -8 0 -17 -4 -20
-9 -3 -5 -14 -7 -25 -4 -10 2 -25 -3 -34 -11 -17 -17 -32 -22 -23 -7 3 4 -6 6
-19 3 -31 -6 -32 11 -2 42 16 18 27 22 42 16 17 -7 17 -9 3 -9 -22 -1 -24 -31
-3 -31 8 0 15 5 15 10 0 5 3 9 8 9 27 -5 53 3 49 14 -2 6 -11 11 -21 9 -9 -2
-16 1 -16 5 0 5 14 10 32 11 18 2 34 5 37 7 9 9 50 5 57 -6z m-56 -141 c0 -5
5 -6 11 -2 6 3 14 1 18 -5 6 -8 15 -9 34 -2 17 7 27 7 27 1 0 -6 -7 -10 -15
-10 -8 0 -15 -5 -15 -11 0 -13 41 -2 55 15 6 7 15 11 22 9 6 -2 15 1 19 8 4 8
3 9 -4 5 -7 -4 -12 -2 -12 3 0 6 7 11 15 11 8 0 15 -7 15 -16 0 -15 2 -15 25
0 13 9 28 16 32 16 4 0 1 -5 -7 -10 -12 -7 -8 -11 18 -16 19 -4 36 -13 39 -20
6 -17 24 -19 20 -2 -1 6 7 14 18 16 16 3 18 1 8 -9 -14 -14 -18 -33 -5 -26 4
3 16 1 27 -4 14 -6 7 -8 -25 -6 -30 1 -44 -2 -43 -10 2 -7 -11 -11 -35 -11
-20 0 -50 -3 -66 -6 -17 -4 -34 -2 -44 6 -10 8 -13 9 -9 1 5 -7 -7 -14 -35
-19 -24 -4 -46 -7 -49 -6 -3 0 -6 -6 -6 -14 0 -9 6 -13 16 -9 12 5 13 3 5 -5
-9 -9 -17 -9 -32 -1 -10 6 -23 7 -27 3 -5 -4 -5 -1 -1 6 4 7 12 10 17 7 5 -4
9 -1 9 4 0 6 -4 12 -10 12 -20 3 -25 4 -37 12 -7 5 -13 15 -13 23 0 8 5 12 10
9 6 -4 18 -1 27 7 14 10 15 10 9 0 -6 -9 -3 -12 10 -10 11 2 18 -2 17 -8 -1
-7 8 -9 22 -6 14 2 25 8 25 13 0 9 -15 13 -33 10 -5 -1 -5 4 -1 10 4 8 3 9 -4
5 -7 -4 -18 -4 -24 1 -7 4 -20 8 -28 8 -8 0 -14 6 -12 13 1 6 -5 12 -13 12 -8
0 -15 4 -15 9 0 4 11 6 25 3 14 -2 25 -9 25 -14z m170 -463 c0 -6 9 -29 19
-51 17 -34 18 -41 5 -50 -22 -17 -17 -24 16 -24 17 0 30 -5 30 -11 0 -5 5 -7
10 -4 6 3 10 -1 10 -9 0 -9 -11 -18 -24 -22 -17 -4 -22 -11 -19 -24 7 -26 -11
-32 -55 -20 -55 14 -86 43 -78 74 4 15 1 26 -7 29 -24 9 -70 -6 -91 -30 -12
-13 -37 -26 -58 -30 -36 -5 -38 -4 -38 21 0 14 5 26 10 26 6 0 10 7 10 15 0 8
8 15 19 15 23 0 35 46 14 54 -23 9 -53 7 -53 -4 0 -5 -7 -10 -15 -10 -21 0
-65 22 -65 32 0 5 4 6 10 3 6 -3 10 -1 10 4 0 6 8 11 18 11 9 0 26 7 36 15 24
18 69 19 99 3 26 -14 32 -16 72 -24 25 -5 35 -1 50 19 16 21 22 23 42 14 12
-5 23 -15 23 -22z"/>
<path d="M1214 926 c-4 -10 -19 -14 -45 -13 -38 2 -53 -16 -16 -18 24 -2 40
-27 24 -37 -8 -5 -5 -8 8 -8 20 -1 20 -1 1 -15 -27 -20 -29 -45 -5 -40 33 7
41 15 28 31 -9 11 -9 14 0 14 7 0 9 4 6 10 -3 6 1 7 10 3 13 -5 14 -7 3 -14
-9 -6 -9 -9 -1 -9 6 0 10 -8 8 -18 -2 -15 2 -17 25 -14 16 2 36 -1 47 -7 10
-6 13 -11 5 -11 -21 0 -3 -20 19 -20 12 0 17 4 13 11 -3 6 0 15 7 20 10 6 4 9
-18 9 -49 0 -48 16 1 36 28 12 40 21 33 26 -8 5 -4 8 9 8 12 0 25 7 28 16 5
13 2 15 -14 11 -12 -3 -24 1 -30 11 -9 16 -11 16 -20 0 -6 -10 -16 -18 -21
-18 -6 0 -7 5 -3 12 5 8 -4 10 -32 6 -37 -5 -72 11 -57 26 4 3 3 6 -1 6 -3 0
-9 -6 -12 -14z"/>
<path d="M1627 547 c-58 -59 -74 -87 -56 -98 8 -5 25 -9 39 -10 14 -1 36 -3
50 -5 134 -17 130 -18 130 2 0 11 -5 26 -10 34 -6 10 -4 20 6 32 14 15 14 18
-5 30 -22 13 -29 38 -11 38 6 0 10 3 10 8 0 4 -26 7 -57 7 -54 1 -61 -2 -96
-38z"/>
<path d="M1813 410 c-30 -12 -29 -30 6 -82 40 -59 63 -78 103 -84 73 -12 84
51 17 99 -21 16 -39 32 -39 37 0 8 -53 41 -62 39 -2 0 -13 -4 -25 -9z"/>
<path d="M1240 231 c0 -38 -43 -52 -66 -22 -9 12 -12 9 -16 -12 -3 -14 0 -28
6 -31 6 -2 3 -5 -6 -5 -10 -1 -18 -8 -18 -16 0 -7 -6 -18 -14 -22 -8 -4 -17
-20 -21 -34 -6 -23 -3 -27 26 -33 76 -15 109 -3 109 41 0 13 6 36 14 51 7 15
16 44 19 65 5 32 3 37 -14 37 -12 0 -19 -7 -19 -19z"/>
<path d="M1860 162 c-43 -6 -44 -19 -1 -50 23 -17 52 -46 64 -64 29 -42 75
-50 107 -18 28 28 22 42 -28 58 -23 8 -42 18 -42 23 0 12 -39 47 -58 51 -10 2
-28 2 -42 0z"/>
</g>
</svg>
